<mxfile host="app.diagrams.net" agent="Mozilla/5.0 (X11; Linux x86_64) AppleWebKit/537.36 (KHTML, like Gecko) Chrome/141.0.0.0 Safari/537.36" version="28.2.5">
  <diagram name="Página-1" id="IeC42itf7hQrCEjuFeAk">
    <mxGraphModel dx="1426" dy="679" grid="1" gridSize="10" guides="1" tooltips="1" connect="1" arrows="1" fold="1" page="1" pageScale="1" pageWidth="827" pageHeight="1169" math="0" shadow="0">
      <root>
        <mxCell id="0" />
        <mxCell id="1" parent="0" />
        <mxCell id="mcIhvOXwtSKJyEA9pUru-1" value="VISTA" style="rounded=0;whiteSpace=wrap;html=1;" vertex="1" parent="1">
          <mxGeometry x="120" y="20" width="120" height="60" as="geometry" />
        </mxCell>
        <mxCell id="mcIhvOXwtSKJyEA9pUru-2" value="CONTROLADOR" style="rounded=0;whiteSpace=wrap;html=1;" vertex="1" parent="1">
          <mxGeometry x="320" y="20" width="120" height="60" as="geometry" />
        </mxCell>
        <mxCell id="mcIhvOXwtSKJyEA9pUru-3" value="MODELO" style="rounded=0;whiteSpace=wrap;html=1;" vertex="1" parent="1">
          <mxGeometry x="520" y="20" width="120" height="60" as="geometry" />
        </mxCell>
        <mxCell id="mcIhvOXwtSKJyEA9pUru-4" style="edgeStyle=orthogonalEdgeStyle;rounded=0;orthogonalLoop=1;jettySize=auto;html=1;exitX=0.5;exitY=1;exitDx=0;exitDy=0;entryX=0.5;entryY=0;entryDx=0;entryDy=0;" edge="1" parent="1" source="mcIhvOXwtSKJyEA9pUru-5" target="mcIhvOXwtSKJyEA9pUru-7">
          <mxGeometry relative="1" as="geometry" />
        </mxCell>
        <mxCell id="mcIhvOXwtSKJyEA9pUru-5" value="mostrar formulario" style="rounded=1;whiteSpace=wrap;html=1;" vertex="1" parent="1">
          <mxGeometry x="120" y="280" width="120" height="40" as="geometry" />
        </mxCell>
        <mxCell id="mcIhvOXwtSKJyEA9pUru-6" style="edgeStyle=orthogonalEdgeStyle;rounded=0;orthogonalLoop=1;jettySize=auto;html=1;exitX=0.5;exitY=1;exitDx=0;exitDy=0;entryX=0.5;entryY=0;entryDx=0;entryDy=0;" edge="1" parent="1" source="mcIhvOXwtSKJyEA9pUru-7" target="mcIhvOXwtSKJyEA9pUru-9">
          <mxGeometry relative="1" as="geometry" />
        </mxCell>
        <mxCell id="mcIhvOXwtSKJyEA9pUru-7" value="completar formulario" style="rounded=1;whiteSpace=wrap;html=1;" vertex="1" parent="1">
          <mxGeometry x="120" y="360" width="120" height="40" as="geometry" />
        </mxCell>
        <mxCell id="mcIhvOXwtSKJyEA9pUru-8" style="edgeStyle=orthogonalEdgeStyle;rounded=0;orthogonalLoop=1;jettySize=auto;html=1;exitX=1;exitY=0.5;exitDx=0;exitDy=0;entryX=0;entryY=0.5;entryDx=0;entryDy=0;" edge="1" parent="1" source="mcIhvOXwtSKJyEA9pUru-9" target="mcIhvOXwtSKJyEA9pUru-11">
          <mxGeometry relative="1" as="geometry" />
        </mxCell>
        <mxCell id="mcIhvOXwtSKJyEA9pUru-9" value="confirmar formulario" style="rounded=1;whiteSpace=wrap;html=1;" vertex="1" parent="1">
          <mxGeometry x="120" y="440" width="120" height="40" as="geometry" />
        </mxCell>
        <mxCell id="mcIhvOXwtSKJyEA9pUru-10" style="edgeStyle=orthogonalEdgeStyle;rounded=0;orthogonalLoop=1;jettySize=auto;html=1;exitX=0.5;exitY=1;exitDx=0;exitDy=0;entryX=0.5;entryY=0;entryDx=0;entryDy=0;" edge="1" parent="1" source="mcIhvOXwtSKJyEA9pUru-11" target="mcIhvOXwtSKJyEA9pUru-21">
          <mxGeometry relative="1" as="geometry" />
        </mxCell>
        <mxCell id="mcIhvOXwtSKJyEA9pUru-11" value="validar datos" style="rounded=1;whiteSpace=wrap;html=1;" vertex="1" parent="1">
          <mxGeometry x="320" y="440" width="120" height="40" as="geometry" />
        </mxCell>
        <mxCell id="mcIhvOXwtSKJyEA9pUru-12" style="edgeStyle=orthogonalEdgeStyle;rounded=0;orthogonalLoop=1;jettySize=auto;html=1;exitX=0;exitY=0.5;exitDx=0;exitDy=0;entryX=0;entryY=0.5;entryDx=0;entryDy=0;" edge="1" parent="1" source="mcIhvOXwtSKJyEA9pUru-13" target="mcIhvOXwtSKJyEA9pUru-5">
          <mxGeometry relative="1" as="geometry" />
        </mxCell>
        <mxCell id="mcIhvOXwtSKJyEA9pUru-13" value="informar error" style="rounded=1;whiteSpace=wrap;html=1;" vertex="1" parent="1">
          <mxGeometry x="120" y="520" width="120" height="40" as="geometry" />
        </mxCell>
        <mxCell id="mcIhvOXwtSKJyEA9pUru-14" style="edgeStyle=orthogonalEdgeStyle;rounded=0;orthogonalLoop=1;jettySize=auto;html=1;exitX=0.5;exitY=1;exitDx=0;exitDy=0;entryX=0.5;entryY=0;entryDx=0;entryDy=0;" edge="1" parent="1" source="mcIhvOXwtSKJyEA9pUru-15" target="mcIhvOXwtSKJyEA9pUru-17">
          <mxGeometry relative="1" as="geometry" />
        </mxCell>
        <mxCell id="mcIhvOXwtSKJyEA9pUru-15" value="crear prestatario" style="rounded=1;whiteSpace=wrap;html=1;" vertex="1" parent="1">
          <mxGeometry x="320" y="600" width="120" height="40" as="geometry" />
        </mxCell>
        <mxCell id="mcIhvOXwtSKJyEA9pUru-16" style="edgeStyle=orthogonalEdgeStyle;rounded=0;orthogonalLoop=1;jettySize=auto;html=1;exitX=1;exitY=0.5;exitDx=0;exitDy=0;" edge="1" parent="1" source="mcIhvOXwtSKJyEA9pUru-17" target="mcIhvOXwtSKJyEA9pUru-23">
          <mxGeometry relative="1" as="geometry" />
        </mxCell>
        <mxCell id="mcIhvOXwtSKJyEA9pUru-17" value="añadir prestatario" style="rounded=1;whiteSpace=wrap;html=1;" vertex="1" parent="1">
          <mxGeometry x="320" y="680" width="120" height="40" as="geometry" />
        </mxCell>
        <mxCell id="mcIhvOXwtSKJyEA9pUru-18" value="" style="ellipse;whiteSpace=wrap;html=1;aspect=fixed;fillStyle=solid;fillColor=light-dark(#FFFFFF,#121212);" vertex="1" parent="1">
          <mxGeometry x="170" y="770" width="20" height="20" as="geometry" />
        </mxCell>
        <mxCell id="mcIhvOXwtSKJyEA9pUru-19" style="edgeStyle=orthogonalEdgeStyle;rounded=0;orthogonalLoop=1;jettySize=auto;html=1;exitX=0.5;exitY=1;exitDx=0;exitDy=0;entryX=0.5;entryY=0;entryDx=0;entryDy=0;" edge="1" parent="1" source="mcIhvOXwtSKJyEA9pUru-21" target="mcIhvOXwtSKJyEA9pUru-15">
          <mxGeometry relative="1" as="geometry" />
        </mxCell>
        <mxCell id="mcIhvOXwtSKJyEA9pUru-20" style="edgeStyle=orthogonalEdgeStyle;rounded=0;orthogonalLoop=1;jettySize=auto;html=1;exitX=0;exitY=0.5;exitDx=0;exitDy=0;" edge="1" parent="1" source="mcIhvOXwtSKJyEA9pUru-21" target="mcIhvOXwtSKJyEA9pUru-13">
          <mxGeometry relative="1" as="geometry" />
        </mxCell>
        <mxCell id="mcIhvOXwtSKJyEA9pUru-21" value="" style="rhombus;whiteSpace=wrap;html=1;" vertex="1" parent="1">
          <mxGeometry x="360" y="520" width="40" height="40" as="geometry" />
        </mxCell>
        <mxCell id="mcIhvOXwtSKJyEA9pUru-22" style="edgeStyle=orthogonalEdgeStyle;rounded=0;orthogonalLoop=1;jettySize=auto;html=1;exitX=0.5;exitY=1;exitDx=0;exitDy=0;entryX=1;entryY=0.5;entryDx=0;entryDy=0;" edge="1" parent="1" source="mcIhvOXwtSKJyEA9pUru-23" target="mcIhvOXwtSKJyEA9pUru-18">
          <mxGeometry relative="1" as="geometry" />
        </mxCell>
        <mxCell id="mcIhvOXwtSKJyEA9pUru-23" value="modificar tabla prestatarios" style="rounded=1;whiteSpace=wrap;html=1;" vertex="1" parent="1">
          <mxGeometry x="520" y="680" width="120" height="40" as="geometry" />
        </mxCell>
        <mxCell id="mcIhvOXwtSKJyEA9pUru-24" style="edgeStyle=orthogonalEdgeStyle;rounded=0;orthogonalLoop=1;jettySize=auto;html=1;exitX=0.5;exitY=1;exitDx=0;exitDy=0;entryX=0.5;entryY=0;entryDx=0;entryDy=0;" edge="1" parent="1" source="mcIhvOXwtSKJyEA9pUru-25" target="mcIhvOXwtSKJyEA9pUru-5">
          <mxGeometry relative="1" as="geometry" />
        </mxCell>
        <mxCell id="mcIhvOXwtSKJyEA9pUru-25" value="alta prestatario" style="rounded=1;whiteSpace=wrap;html=1;" vertex="1" parent="1">
          <mxGeometry x="120" y="200" width="120" height="40" as="geometry" />
        </mxCell>
        <mxCell id="mcIhvOXwtSKJyEA9pUru-26" style="edgeStyle=orthogonalEdgeStyle;rounded=0;orthogonalLoop=1;jettySize=auto;html=1;exitX=0.5;exitY=1;exitDx=0;exitDy=0;entryX=0.5;entryY=0;entryDx=0;entryDy=0;" edge="1" parent="1" source="mcIhvOXwtSKJyEA9pUru-27" target="mcIhvOXwtSKJyEA9pUru-25">
          <mxGeometry relative="1" as="geometry" />
        </mxCell>
        <mxCell id="mcIhvOXwtSKJyEA9pUru-27" value="vista prestatarios" style="rounded=1;whiteSpace=wrap;html=1;" vertex="1" parent="1">
          <mxGeometry x="120" y="120" width="120" height="40" as="geometry" />
        </mxCell>
      </root>
    </mxGraphModel>
  </diagram>
</mxfile>
